<svg width="900" height="106" viewBox="0 0 900 106" fill="none" xmlns="http://www.w3.org/2000/svg">
<path d="M0 18H60V12H120V5H180V8H240V9H300V15H360V16H420V15H480V2H540V10H600V17H660V6H720V0H780V5H840V12H900V19V106H840H780H720H660H600H540H480H420H360H300H240H180H120H60H0V18Z" fill="#F6F4F3"/>
<path d="M0 17H60H120H180V34H240V26H300V18H360V20H420V33H480V25H540V26H600V18H660V20H720V30H780V33H840V32H900V106H840H780H720H660H600H540H480H420H360H300H240H180H120H60H0V17Z" fill="#CDC7C2"/>
<path d="M0 47H60V42H120V46H180V34H240V43H300V44H360V38H420V37H480V42H540V39H600V47H660V37H720V42H780V39H840V46H900V47V106H840H780H720H660H600H540H480H420H360H300H240H180H120H60H0V47Z" fill="#A49D93"/>
<path d="M0 48H60V59H120V60H180V62H240V60H300V50H360V53H420V51H480V57H540V49H600V63H660V51H720V54H780V58H840V63H900V61V106H840H780H720H660H600H540H480H420H360H300H240H180H120H60H0V48Z" fill="#7A7667"/>
<path d="M0 71H60V72H120V74H180V71H240V74H300H360V73H420V70H480V72H540V68H600V64H660V74H720V73H780V64H840V76H900V65V106H840H780H720H660H600H540H480H420H360H300H240H180H120H60H0V71Z" fill="#50513F"/>
<path d="M0 89H60V86H120V92H180V91H240V81H300V91H360V94H420V92H480V91H540V92H600V87H660V92H720V87H780V85H840V92H900V82V106H840H780H720H660H600H540H480H420H360H300H240H180H120H60H0V89Z" fill="#272F1C"/>
</svg>
