<svg id="visual" viewBox="0 0 1280 159" width="1280" height="159" xmlns="http://www.w3.org/2000/svg" xmlns:xlink="http://www.w3.org/1999/xlink" version="1.1"><path d="M0 39L107 39L107 60L213 60L213 50L320 50L320 31L427 31L427 14L533 14L533 37L640 37L640 55L747 55L747 57L853 57L853 34L960 34L960 24L1067 24L1067 19L1173 19L1173 61L1280 61L1280 40L1280 160L1280 160L1173 160L1173 160L1067 160L1067 160L960 160L960 160L853 160L853 160L747 160L747 160L640 160L640 160L533 160L533 160L427 160L427 160L320 160L320 160L213 160L213 160L107 160L107 160L0 160Z" fill="#f7f7f1"></path><path d="M0 61L107 61L107 52L213 52L213 56L320 56L320 44L427 44L427 59L533 59L533 35L640 35L640 53L747 53L747 51L853 51L853 69L960 69L960 83L1067 83L1067 49L1173 49L1173 73L1280 73L1280 64L1280 160L1280 160L1173 160L1173 160L1067 160L1067 160L960 160L960 160L853 160L853 160L747 160L747 160L640 160L640 160L533 160L533 160L427 160L427 160L320 160L320 160L213 160L213 160L107 160L107 160L0 160Z" fill="#d0d7cc"></path><path d="M0 67L107 67L107 83L213 83L213 66L320 66L320 63L427 63L427 71L533 71L533 91L640 91L640 69L747 69L747 86L853 86L853 63L960 63L960 75L1067 75L1067 56L1173 56L1173 95L1280 95L1280 66L1280 160L1280 160L1173 160L1173 160L1067 160L1067 160L960 160L960 160L853 160L853 160L747 160L747 160L640 160L640 160L533 160L533 160L427 160L427 160L320 160L320 160L213 160L213 160L107 160L107 160L0 160Z" fill="#a5b9ac"></path><path d="M0 100L107 100L107 87L213 87L213 79L320 79L320 102L427 102L427 89L533 89L533 83L640 83L640 89L747 89L747 113L853 113L853 110L960 110L960 77L1067 77L1067 80L1173 80L1173 83L1280 83L1280 95L1280 160L1280 160L1173 160L1173 160L1067 160L1067 160L960 160L960 160L853 160L853 160L747 160L747 160L640 160L640 160L533 160L533 160L427 160L427 160L320 160L320 160L213 160L213 160L107 160L107 160L0 160Z" fill="#799b93"></path><path d="M0 108L107 108L107 115L213 115L213 115L320 115L320 118L427 118L427 100L533 100L533 129L640 129L640 116L747 116L747 124L853 124L853 125L960 125L960 107L1067 107L1067 127L1173 127L1173 117L1280 117L1280 121L1280 160L1280 160L1173 160L1173 160L1067 160L1067 160L960 160L960 160L853 160L853 160L747 160L747 160L640 160L640 160L533 160L533 160L427 160L427 160L320 160L320 160L213 160L213 160L107 160L107 160L0 160Z" fill="#4d7e80"></path><path d="M0 142L107 142L107 126L213 126L213 145L320 145L320 132L427 132L427 130L533 130L533 151L640 151L640 133L747 133L747 144L853 144L853 135L960 135L960 149L1067 149L1067 127L1173 127L1173 129L1280 129L1280 122L1280 160L1280 160L1173 160L1173 160L1067 160L1067 160L960 160L960 160L853 160L853 160L747 160L747 160L640 160L640 160L533 160L533 160L427 160L427 160L320 160L320 160L213 160L213 160L107 160L107 160L0 160Z" fill="#1f6170"></path></svg>